<svg preserveAspectRatio="none" width="100%" height="100%" overflow="visible" style="display: block;" viewBox="0 0 86.6693 13.5068" fill="none" xmlns="http://www.w3.org/2000/svg">
<g id="Group">
<path id="Vector" d="M0.000186375 0.259345H2.89388L6.6992 9.70988H6.77447L10.5798 0.259345H13.4735V13.2643H11.207V4.6919H11.1568L7.71115 13.2643H5.77086L2.3419 4.6919H2.26663V13.2643H0.000186375V0.259345Z" fill="var(--fill-0, white)"/>
<path id="Vector_2" d="M23.5513 10.1113H18.3075L17.1952 13.2726H14.6778L19.6707 0.267683H22.2048L27.1977 13.2726H24.6636L23.5513 10.1113ZM22.7902 7.95356L20.9754 2.81849H20.8834L19.0686 7.95356H22.7902Z" fill="var(--fill-0, white)"/>
<path id="Vector_3" d="M30.3925 7.98703L25.4832 0.259345H28.1762L31.4965 5.72058H31.5884L34.892 0.259345H37.5849L32.6757 7.98703V13.2726H30.3758V7.98703H30.3925Z" fill="var(--fill-0, white)"/>
<path id="Vector_4" d="M42.7366 2.47559L45.8644 0.267683H48.1309V13.2726H45.8644V2.83522H45.8143L42.7449 5.00967V2.47559H42.7366Z" fill="var(--fill-0, white)"/>
<path id="Vector_5" d="M50.9242 11.3825L54.7713 7.82805C56.628 5.9714 57.4225 5.27724 57.4309 4.08965C57.4225 2.87698 56.5861 2.08246 55.2397 2.0741C54.2277 2.08246 53.4332 2.56753 53.0318 4.03111L50.8573 3.47077C51.5096 1.07887 53.1488 0 55.2397 0C57.9577 0 59.6889 1.77302 59.6973 4.08129C59.6889 6.1303 58.3341 7.33462 56.3185 9.25817L54.303 11.1232V11.1985H59.8729V13.2642H50.9242V11.3741V11.3825Z" fill="var(--fill-0, white)"/>
<path id="Vector_6" d="M67.4417 7.82805H61.7128V5.85431H67.4417V7.82805Z" fill="var(--fill-0, white)"/>
<path id="Vector_7" d="M68.9555 2.47559L72.0834 0.267683H74.3498V13.2726H72.0834V2.83522H72.0332L68.9639 5.00967V2.47559H68.9555Z" fill="var(--fill-0, white)"/>
<path id="Vector_8" d="M76.8173 10.2701L78.9416 9.53417C79.4936 10.8556 80.4386 11.5079 81.7433 11.5079C83.2821 11.5079 84.361 10.6298 84.3694 9.42544C84.361 8.12913 83.1232 7.35134 81.0993 7.3597H80.6644V5.5616H81.0993C82.864 5.55323 83.9094 4.90926 83.9177 3.79694C83.9094 2.75989 83.0145 2.01555 81.7265 2.01555C80.5891 2.01555 79.7361 2.60099 79.2844 3.70494L77.1602 2.9857C77.938 1.03705 79.6106 0 81.76 0C84.3275 0 86.2093 1.48866 86.2009 3.53767C86.2093 4.94271 85.3311 5.92958 83.7588 6.41465V6.4481C85.6071 6.98336 86.6776 8.12913 86.6693 9.70143C86.6776 11.9093 84.6035 13.5067 81.7851 13.5067C79.3765 13.5067 77.662 12.3359 76.8257 10.2534L76.8173 10.2701Z" fill="var(--fill-0, white)"/>
</g>
</svg>
