<svg preserveAspectRatio="none" width="100%" height="100%" overflow="visible" style="display: block;" viewBox="0 0 199.105 36.9324" fill="none" xmlns="http://www.w3.org/2000/svg">
<g id="Group">
<path id="Vector" d="M0 0.250946H2.47554L5.46124 10.2785H5.53651L8.27131 0.250946H10.4792L13.214 10.2785H13.306L16.2917 0.250946H18.7505L14.5856 13.2559H11.9595L9.42544 4.36569H9.35017L6.79936 13.2559H4.17329L0.0083633 0.250946H0Z" fill="var(--fill-0, white)"/>
<path id="Vector_2" d="M26.1355 10.1029H20.8917L19.7794 13.2643H17.2621L22.2549 0.259338H24.789L29.7819 13.2643H27.2478L26.1355 10.1029ZM25.3828 7.94521L23.568 2.81014H23.476L21.6611 7.94521H25.3828Z" fill="var(--fill-0, white)"/>
<path id="Vector_3" d="M30.9775 0.250946H33.6036L39.7841 9.60948H39.8593V0.250946H42.1593V13.2559H39.575L33.3778 3.8388H33.2858V13.2559H30.9859V0.250946H30.9775Z" fill="var(--fill-0, white)"/>
<path id="Vector_4" d="M43.7653 0.250946H54.0605V2.40868H50.0545V13.2642H47.7546V2.40868H43.7653V0.250946Z" fill="var(--fill-0, white)"/>
<path id="Vector_5" d="M55.6575 0.250946H63.9372V2.40868H57.9574V5.53655H63.4354V7.55211H57.9574V11.1065H64.0877V13.2642H55.6575V0.259311V0.250946Z" fill="var(--fill-0, white)"/>
<path id="Vector_6" d="M65.744 0.250946H69.5326C73.823 0.250946 76.6414 2.81848 76.6498 6.75759C76.6414 10.6967 73.8313 13.2642 69.5326 13.2642H65.744V0.259311V0.250946ZM69.541 11.1065C72.5517 11.1065 74.3331 9.50076 74.3164 6.75759C74.3248 4.01443 72.5434 2.40868 69.541 2.40868H68.0523V11.1065H69.541Z" fill="var(--fill-0, white)"/>
<path id="Vector_7" d="M81.8852 6.75759C81.8769 2.95229 84.7455 4.79562e-05 88.442 4.79562e-05C90.7336 4.79562e-05 92.6906 1.12909 93.8364 2.89375L91.8794 4.04788C91.1267 2.91047 89.8889 2.19123 88.4504 2.18286C86.0585 2.19123 84.2102 4.19006 84.2102 6.76596C84.2102 9.34185 86.0585 11.3407 88.4504 11.349C89.8889 11.3407 91.1267 10.6214 91.8794 9.48403L93.8364 10.6382C92.699 12.4028 90.7336 13.5319 88.442 13.5319C84.7371 13.5319 81.8769 10.588 81.8852 6.77432V6.75759Z" fill="var(--fill-0, white)"/>
<path id="Vector_8" d="M94.9655 6.75759C94.9571 2.90211 97.8843 4.79562e-05 101.756 4.79562e-05C105.629 4.79562e-05 108.539 2.90211 108.547 6.75759C108.539 10.6131 105.62 13.5151 101.756 13.5151C97.8926 13.5151 94.9571 10.6131 94.9655 6.75759ZM106.214 6.75759C106.222 4.08133 104.374 2.18287 101.756 2.17451C99.1304 2.18287 97.2821 4.08133 97.2821 6.75759C97.2821 9.43385 99.1304 11.3323 101.756 11.3407C104.374 11.3323 106.222 9.43385 106.214 6.75759Z" fill="var(--fill-0, white)"/>
<path id="Vector_9" d="M110.094 0.250946H112.72L118.901 9.60948H118.976V0.250946H121.276V13.2559H118.692L112.495 3.8388H112.403V13.2559H110.103V0.250946H110.094Z" fill="var(--fill-0, white)"/>
<path id="Vector_10" d="M123.275 0.250946H131.429V2.40868H125.575V5.80418H130.86V7.86991H125.575V13.2642H123.275V0.259311V0.250946Z" fill="var(--fill-0, white)"/>
<path id="Vector_11" d="M133.085 0.250946H141.365V2.40868H135.385V5.53655H140.863V7.55211H135.385V11.1065H141.516V13.2642H133.085V0.259311V0.250946Z" fill="var(--fill-0, white)"/>
<path id="Vector_12" d="M143.171 0.250946H147.462C150.364 0.250946 152.337 1.87343 152.346 4.24024C152.337 6.0969 151.141 7.49356 149.251 8.01209L152.739 13.2559H150.096L146.809 8.24626H145.463V13.2559H143.163V0.250946H143.171ZM147.553 6.27253C149.109 6.28089 150.021 5.53655 150.012 4.31551C150.021 3.09447 149.109 2.36686 147.553 2.3585H145.471V6.27253H147.553Z" fill="var(--fill-0, white)"/>
<path id="Vector_13" d="M154.32 0.250946H162.599V2.40868H156.619V5.53655H162.097V7.55211H156.619V11.1065H162.75V13.2642H154.32V0.259311V0.250946Z" fill="var(--fill-0, white)"/>
<path id="Vector_14" d="M164.414 0.250946H167.04L173.22 9.60948H173.296V0.250946H175.596V13.2559H173.011L166.814 3.8388H166.722V13.2559H164.422V0.250946H164.414Z" fill="var(--fill-0, white)"/>
<path id="Vector_15" d="M177.143 6.75759C177.135 2.95229 180.003 4.79562e-05 183.7 4.79562e-05C185.992 4.79562e-05 187.949 1.12909 189.094 2.89375L187.137 4.04788C186.385 2.91047 185.147 2.19123 183.708 2.18286C181.317 2.19123 179.468 4.19006 179.468 6.76596C179.468 9.34185 181.317 11.3407 183.708 11.349C185.147 11.3407 186.385 10.6214 187.137 9.48403L189.094 10.6382C187.957 12.4028 185.992 13.5319 183.7 13.5319C179.995 13.5319 177.135 10.588 177.143 6.77432V6.75759Z" fill="var(--fill-0, white)"/>
<path id="Vector_16" d="M190.675 0.250946H198.954V2.40868H192.975V5.53655H198.453V7.55211H192.975V11.1065H199.105V13.2642H190.675V0.259311V0.250946Z" fill="var(--fill-0, white)"/>
<path id="Vector_17" d="M0.844465 23.6682H8.99868V25.826H3.14437V29.2215H8.42998V31.2872H3.14437V36.6815H0.844465V23.6766V23.6682Z" fill="var(--fill-0, white)"/>
<path id="Vector_18" d="M9.96052 30.1748C9.95216 26.3193 12.8793 23.4173 16.7515 23.4173C20.6237 23.4173 23.5342 26.3193 23.5425 30.1748C23.5342 34.0303 20.6154 36.9324 16.7515 36.9324C12.8877 36.9324 9.95216 34.0303 9.96052 30.1748ZM21.2092 30.1748C21.2175 27.4986 19.3692 25.6001 16.7515 25.5917C14.1254 25.6001 12.2772 27.4986 12.2772 30.1748C12.2772 32.8511 14.1254 34.7495 16.7515 34.7579C19.3692 34.7495 21.2175 32.8511 21.2092 30.1748Z" fill="var(--fill-0, white)"/>
<path id="Vector_19" d="M25.0899 23.6682H29.3803C32.2823 23.6682 34.2561 25.2907 34.2644 27.6575C34.2561 29.5142 33.0601 30.9108 31.17 31.4294L34.6575 36.6732H32.0147L28.7279 31.6635H27.3814V36.6732H25.0815V23.6682H25.0899ZM29.4806 29.6898C31.0362 29.6982 31.9478 28.9538 31.9394 27.7328C31.9478 26.5118 31.0362 25.7841 29.4806 25.7758H27.3982V29.6898H29.4806Z" fill="var(--fill-0, white)"/>
<path id="Vector_20" d="M39.9933 23.6682H42.2932V28.7698H48.4402V23.6682H50.7401V36.6732H48.4402V30.9192H42.2932V36.6732H39.9933V23.6682Z" fill="var(--fill-0, white)"/>
<path id="Vector_21" d="M52.7388 23.6682H57.0292C59.9313 23.6682 61.905 25.2907 61.9134 27.6575C61.905 29.5142 60.709 30.9108 58.8189 31.4294L62.3064 36.6732H59.6636L56.3769 31.6635H55.0304V36.6732H52.7305V23.6682H52.7388ZM57.1212 29.6898C58.6768 29.6982 59.5884 28.9538 59.58 27.7328C59.5884 26.5118 58.6768 25.7841 57.1212 25.7758H55.0387V29.6898H57.1212Z" fill="var(--fill-0, white)"/>
<path id="Vector_22" d="M63.0511 33.2441C63.0427 31.3875 64.3976 30.317 65.8863 29.4137L65.6855 29.1963C64.799 28.2011 64.4561 27.4484 64.4645 26.5535C64.4561 24.7052 65.8946 23.4089 67.9353 23.4089C69.9759 23.4089 71.3977 24.7136 71.406 26.52C71.3977 27.7243 70.7788 28.5858 68.964 29.7566L71.4395 32.5416C71.8744 31.7722 72.1253 30.8439 72.1253 29.8486H74.2245C74.2245 31.4544 73.7143 32.9514 72.8613 34.1223L75.1277 36.6731H72.3762L71.4228 35.5942C70.3021 36.4305 68.9305 36.924 67.4502 36.924C64.8408 36.924 63.0427 35.3768 63.0511 33.2441ZM67.5087 34.9168C68.4622 34.9168 69.3403 34.6241 70.0763 34.0888L67.1658 30.8355C66.087 31.5129 65.3092 32.1485 65.3176 33.1856C65.3092 34.2561 66.1372 34.9001 67.5087 34.9084V34.9168ZM67.2913 27.9083L67.7011 28.36C68.9556 27.532 69.2399 27.1055 69.2316 26.5786C69.2399 25.8342 68.6796 25.3324 67.9353 25.3408C67.1742 25.3324 66.6222 25.8342 66.6222 26.5618C66.6222 27.0051 66.8313 27.4149 67.2829 27.9083H67.2913Z" fill="var(--fill-0, white)"/>
<path id="Vector_23" d="M76.382 23.6682H79.2757L83.081 33.1188H83.1563L86.9616 23.6682H89.8553V36.6732H87.5888V28.1008H87.5387L84.093 36.6732H82.1527L78.7237 28.1008H78.6485V36.6732H76.382V23.6682Z" fill="var(--fill-0, white)"/>
<path id="Vector_24" d="M99.9331 33.5202H94.6893L93.577 36.6815H91.0597L96.0526 23.6766H98.5866L103.58 36.6815H101.045L99.9331 33.5202ZM99.1804 31.3624L97.3656 26.2274H97.2736L95.4588 31.3624H99.1804Z" fill="var(--fill-0, white)"/>
<path id="Vector_25" d="M104.776 23.6682H107.075V29.2884H107.167L111.909 23.6682H114.82L109.467 29.8487L114.987 36.6732H112.043L107.193 30.5429H107.084V36.6732H104.784V23.6682H104.776Z" fill="var(--fill-0, white)"/>
<path id="Vector_26" d="M116.149 23.6682H124.429V25.826H118.449V28.9538H123.927V30.9694H118.449V34.5238H124.58V36.6815H116.149V23.6766V23.6682Z" fill="var(--fill-0, white)"/>
<path id="Vector_27" d="M126.236 23.6682H130.526C133.428 23.6682 135.402 25.2907 135.41 27.6575C135.402 29.5142 134.206 30.9108 132.316 31.4294L135.803 36.6732H133.16L129.874 31.6635H128.527V36.6732H126.227V23.6682H126.236ZM130.626 29.6898C132.182 29.6982 133.094 28.9538 133.085 27.7328C133.094 26.5118 132.182 25.7841 130.626 25.7758H128.544V29.6898H130.626Z" fill="var(--fill-0, white)"/>
<path id="Vector_28" d="M136.405 34.7412L137.986 33.2107C138.914 34.2812 139.893 34.7496 141.131 34.7579C142.602 34.7496 143.506 34.0638 143.506 32.9264C143.506 32.0231 142.92 31.5464 141.172 31.0614L140.545 30.9025C138.078 30.2501 136.874 29.0542 136.882 27.2728C136.874 25.0649 138.739 23.4257 141.306 23.4257C143.021 23.4257 144.61 24.1867 145.73 25.5249L144.15 27.0303C143.347 26.0852 142.385 25.6001 141.315 25.5918C140.077 25.6001 139.215 26.2692 139.215 27.2477C139.215 28.0088 139.726 28.4102 141.156 28.7949L141.783 28.9538C144.593 29.7149 145.856 30.9276 145.847 32.8929C145.856 35.2932 143.941 36.9324 141.156 36.9324C139.291 36.9324 137.677 36.1964 136.43 34.7412H136.405Z" fill="var(--fill-0, white)"/>
</g>
</svg>
