<svg preserveAspectRatio="none" width="100%" height="100%" overflow="visible" style="display: block;" viewBox="0 0 341.449 44.1081" fill="none" xmlns="http://www.w3.org/2000/svg">
<g id="Group">
<path id="Vector" d="M0.000168937 0.819663H7.51041V17.4794H27.5656V0.819663H35.0759V43.2801H27.5656V24.5129H7.50205V43.2801H0.000168937V0.819663Z" fill="var(--fill-0, white)"/>
<path id="Vector_2" d="M41.6074 0.819663H49.1176V43.2801H41.6074V0.819663Z" fill="var(--fill-0, white)"/>
<path id="Vector_3" d="M54.186 22.0541C54.1525 9.50076 63.7201 4.79562e-05 76.3571 4.79562e-05C83.4241 4.79562e-05 89.4958 2.99411 93.4266 8.03718L87.5053 12.4948C84.6869 8.77315 80.9067 7.12558 76.3571 7.10049C67.768 7.13394 61.7547 13.2893 61.7547 22.0541C61.7547 30.8188 67.8265 36.9826 76.4742 37.0077C83.2735 36.9742 87.9402 33.1689 89.0275 27.1557H77.5279V20.7661H96.4123C96.5879 21.9704 96.705 23.1998 96.705 24.4627C96.705 36.0459 88.1995 44.1081 76.4742 44.1081C63.7452 44.1081 54.1609 34.6074 54.186 22.0541Z" fill="var(--fill-0, white)"/>
<path id="Vector_4" d="M101.748 0.819663H109.258V17.4794H129.313V0.819663H136.824V43.2801H129.313V24.5129H109.258V43.2801H101.748V0.819663Z" fill="var(--fill-0, white)"/>
<path id="Vector_5" d="M143.356 0.819663H169.984V7.86156H150.866V18.9429H168.111V25.6838H150.866V43.2801H143.356V0.819663Z" fill="var(--fill-0, white)"/>
<path id="Vector_6" d="M175.37 0.819663H182.881V43.2801H175.37V0.819663Z" fill="var(--fill-0, white)"/>
<path id="Vector_7" d="M186.661 0.819663H194.991L206.959 33.6623H207.368L219.269 0.819663H227.599L211.232 43.2801H203.02L186.661 0.819663Z" fill="var(--fill-0, white)"/>
<path id="Vector_8" d="M231.379 0.819663H258.418V7.86156H238.889V18.0648H256.779V24.63H238.889V36.2466H258.886V43.2885H231.379V0.819663Z" fill="var(--fill-0, white)"/>
<path id="Vector_9" d="M277.62 37.1247L290.173 25.5081C296.245 19.4364 298.821 17.1783 298.854 13.3061C298.821 9.35022 296.095 6.76596 291.695 6.74087C288.384 6.76596 285.799 8.35499 284.478 13.1304L277.378 11.3156C279.519 3.51263 284.854 4.79562e-05 291.687 4.79562e-05C300.569 4.79562e-05 306.206 5.77909 306.231 13.3144C306.197 19.9967 301.773 23.9275 295.208 30.2083L288.643 36.3051V36.5393H306.825V43.2801H277.62V37.1247Z" fill="var(--fill-0, white)"/>
<path id="Vector_10" d="M310.697 28.3851C310.664 23.4257 312.545 19.4447 317.973 11.6083L325.483 0.819663H334.399L323.961 15.0122C323.2 16.0409 322.523 17.0027 321.971 17.8892L322.146 18.0062C323.995 16.5427 326.336 15.6562 329.013 15.6562C336.021 15.6812 341.474 21.6108 341.449 29.2633C341.482 37.7353 334.909 44.0997 326.086 44.0997C317.262 44.0997 310.689 37.6182 310.722 28.3851H310.697ZM334.156 29.5643C334.123 24.8976 330.811 21.6192 326.06 21.6443C321.31 21.6192 317.998 24.8976 317.965 29.5643C317.998 34.2561 321.31 37.5429 326.06 37.5429C330.811 37.5429 334.123 34.2561 334.156 29.5643Z" fill="var(--fill-0, white)"/>
</g>
</svg>
