<svg preserveAspectRatio="none" width="100%" height="100%" overflow="visible" style="display: block;" viewBox="0 0 70.0096 70.0001" fill="none" xmlns="http://www.w3.org/2000/svg">
<g id="Group">
<path id="Vector" d="M53.8934 37.7255V43.011C54.0926 43.0216 54.2791 43.0407 54.4656 43.0407C55.8771 43.0428 57.2885 43.0513 58.6978 43.0365C59.0645 43.0322 59.2319 43.1 59.2298 43.5239C59.2128 46.8045 59.2149 50.0831 59.2298 53.3637C59.2298 53.7749 59.0857 53.866 58.7063 53.8618C57.261 53.8427 55.8135 53.866 54.3681 53.8469C53.9803 53.8406 53.8468 53.9487 53.8532 54.3513C53.8744 55.8157 53.8595 57.278 53.8638 58.7425C53.8638 59.0095 53.8638 59.2236 53.4886 59.2193C51.8843 59.2045 50.2779 59.213 48.6736 59.2087C48.6079 59.2087 48.5422 59.1748 48.4193 59.1388V53.8914H37.7593C37.7508 54.0949 37.7339 54.2835 37.7339 54.47C37.7318 55.8984 37.7233 57.3268 37.7381 58.7552C37.7424 59.0943 37.6406 59.2214 37.2888 59.2193C35.7545 59.2045 34.2201 59.2087 32.6857 59.2172C32.4018 59.2172 32.2746 59.1345 32.2746 58.8251C32.2852 55.4216 32.2852 52.018 32.2894 48.6144C32.2894 48.5826 32.3106 48.5487 32.3467 48.4343H43.013C43.0278 48.1694 43.0469 47.9829 43.0469 47.7964C43.049 46.404 43.0702 45.0095 43.0363 43.6171C43.0257 43.1339 43.1868 43.0259 43.6403 43.0343C45.0157 43.0619 46.3912 43.0449 47.7666 43.0449C47.9573 43.0449 48.1459 43.0449 48.3769 43.0449V37.7234C47.0163 37.7234 45.6812 37.7171 44.3439 37.7234C43.0427 37.7298 43.0427 37.7361 43.0448 36.4201C43.0448 35.2036 43.0596 33.9871 43.0384 32.7706C43.03 32.368 43.1656 32.2599 43.5555 32.2663C45.02 32.2874 46.4844 32.2917 47.9467 32.2663C48.3918 32.2578 48.4765 32.44 48.4723 32.83C48.4575 34.2584 48.4808 35.6868 48.4638 37.1152C48.4596 37.5178 48.5677 37.6747 48.9979 37.6683C50.4263 37.6429 51.8547 37.645 53.2831 37.6683C53.69 37.6747 53.7917 37.5242 53.7875 37.1427C53.7705 35.6974 53.7938 34.2499 53.7705 32.8045C53.7641 32.3807 53.9083 32.262 54.3215 32.2663C55.7859 32.2874 57.2483 32.2874 58.7127 32.2663C59.1111 32.2599 59.2298 32.3849 59.2234 32.777C59.2044 34.2584 59.2044 35.7398 59.2234 37.2211C59.2277 37.6111 59.1153 37.7404 58.7148 37.734C57.3034 37.7128 55.8919 37.7255 54.4826 37.7255C54.294 37.7255 54.1053 37.7255 53.8871 37.7255H53.8934ZM53.7472 43.0725C53.5416 43.0725 53.37 43.0725 53.1983 43.0725C51.825 43.0725 50.4496 43.0979 49.0763 43.0598C48.5698 43.0471 48.4638 43.2166 48.4659 43.685C48.4829 46.8194 48.4744 49.9559 48.4765 53.0903C48.4765 53.298 48.4935 53.5036 48.5062 53.7749C48.7414 53.7749 48.9322 53.7749 49.1208 53.7749C50.4602 53.7749 51.7996 53.7537 53.1368 53.7855C53.6306 53.7982 53.8023 53.6774 53.7981 53.1518C53.7747 49.9644 53.7875 46.777 53.7853 43.5875C53.7853 43.4349 53.7641 43.2802 53.7472 43.0725Z" fill="var(--fill-0, #B4B4B4)"/>
<path id="Vector_2" d="M10.7893 26.9549V26.245C10.7893 21.3092 10.7957 16.3734 10.7787 11.4375C10.7787 10.9501 10.8741 10.77 11.4082 10.7721C16.38 10.7933 21.3518 10.7912 26.3237 10.7721C26.826 10.7721 26.9743 10.8992 26.9722 11.4142C26.9531 16.367 26.9616 21.3198 26.9616 26.2747C26.9616 26.7268 26.7292 26.9528 26.2643 26.9528C21.3285 26.9528 16.3906 26.9528 11.4548 26.9528C11.2641 26.9528 11.0712 26.9528 10.7893 26.9528V26.9549ZM16.2232 21.4363C16.3376 21.4808 16.3864 21.5147 16.4351 21.5147C18.0225 21.5211 19.6098 21.5211 21.1971 21.5317C21.5468 21.5338 21.5383 21.3113 21.5383 21.0718C21.5383 19.6074 21.5299 18.143 21.5426 16.6807C21.5447 16.3437 21.443 16.2144 21.0891 16.2165C19.6246 16.2292 18.1602 16.2271 16.6979 16.2102C16.3185 16.2059 16.2168 16.35 16.2253 16.7082C16.2444 17.5538 16.2253 18.4015 16.2253 19.2471C16.2253 19.9846 16.2253 20.72 16.2253 21.4363H16.2232Z" fill="var(--fill-0, #B4B4B4)"/>
<path id="Vector_3" d="M59.1811 26.9552C58.9564 26.9552 58.7805 26.9552 58.6067 26.9552C53.6349 26.9552 48.663 26.9488 43.6912 26.9658C43.1932 26.9658 43.0342 26.845 43.0363 26.3279C43.0554 21.3391 43.0554 16.3503 43.0363 11.3615C43.0363 10.8867 43.1762 10.7744 43.634 10.7765C48.6397 10.7914 53.6476 10.7893 58.6534 10.7808C59.02 10.7808 59.2298 10.8126 59.2277 11.2809C59.2107 16.3566 59.2171 21.4344 59.215 26.5101C59.215 26.6309 59.1959 26.7496 59.1768 26.953L59.1811 26.9552ZM53.7197 21.5319C53.7515 21.3899 53.779 21.3221 53.779 21.2543C53.7832 19.703 53.7748 18.1495 53.7896 16.5982C53.7938 16.2252 53.5819 16.221 53.3149 16.221C51.8674 16.2252 50.4221 16.2358 48.9746 16.2146C48.5677 16.2083 48.466 16.3566 48.4702 16.7381C48.4871 18.1665 48.4893 19.5949 48.4702 21.0233C48.466 21.4111 48.5783 21.5489 48.9788 21.5404C50.1783 21.5171 51.3779 21.5319 52.5774 21.5319C52.961 21.5319 53.3424 21.5319 53.7197 21.5319Z" fill="var(--fill-0, #B4B4B4)"/>
<path id="Vector_4" d="M10.8295 43.0428C11.0541 43.0428 11.2279 43.0428 11.4017 43.0428C16.3735 43.0428 21.3454 43.0492 26.3172 43.0322C26.811 43.0322 26.9763 43.1445 26.9742 43.6659C26.9551 48.6547 26.9551 53.6435 26.9742 58.6302C26.9742 59.1006 26.8428 59.2214 26.3787 59.2193C21.3729 59.2024 16.365 59.2066 11.3593 59.2151C10.9969 59.2151 10.7807 59.1897 10.7829 58.7171C10.7998 53.6414 10.7934 48.5636 10.7934 43.4879C10.7934 43.3671 10.8125 43.2484 10.8316 43.0428H10.8295ZM21.5361 51.1279C21.5361 50.4052 21.5234 49.6804 21.5425 48.9577C21.5509 48.6081 21.4598 48.4512 21.072 48.4576C19.6076 48.4767 18.1431 48.4746 16.6787 48.4597C16.3333 48.4555 16.2188 48.572 16.2209 48.9175C16.2358 50.3819 16.2337 51.8463 16.2209 53.3086C16.2188 53.635 16.2972 53.7834 16.6596 53.7791C18.141 53.7622 19.6224 53.7664 21.1059 53.7791C21.4259 53.7812 21.5446 53.6689 21.5382 53.3489C21.5234 52.6093 21.534 51.8675 21.534 51.1258L21.5361 51.1279Z" fill="var(--fill-0, #B4B4B4)"/>
<path id="Vector_5" d="M5.45083 5.45305C5.45083 6.26685 5.45083 7.00436 5.45083 7.73976C5.45083 10.3677 5.44447 12.9935 5.46354 15.6214C5.46778 16.0707 5.36606 16.2423 4.88074 16.2317C3.43539 16.2021 1.98792 16.2063 0.542564 16.2296C0.118707 16.236 -0.00209199 16.094 2.72902e-05 15.6807C0.012743 12.2771 -0.00633056 8.87569 0.012743 5.47212C0.0318166 2.43307 2.42661 0.031918 5.46566 0.0128445C8.86923 -0.00834836 12.2728 0.0128445 15.6764 0.000128777C16.0769 0.000128777 16.2422 0.0997352 16.2359 0.532069C16.2147 1.99438 16.2147 3.4588 16.2359 4.92323C16.2422 5.34073 16.1108 5.46364 15.6912 5.46153C12.5356 5.44669 9.37786 5.45305 6.22225 5.45305C5.99548 5.45305 5.76872 5.45305 5.45295 5.45305H5.45083Z" fill="var(--fill-0, #B4B4B4)"/>
<path id="Vector_6" d="M64.5555 5.45295C64.2673 5.45295 64.0596 5.45295 63.8498 5.45295C60.7111 5.45295 57.5704 5.44447 54.4317 5.46354C53.94 5.46566 53.7599 5.36182 53.7747 4.82564C53.815 3.39936 53.798 1.96884 53.7747 0.540445C53.7684 0.118707 53.9125 -0.00209199 54.3257 2.72915e-05C57.7293 0.012743 61.1329 -0.00844985 64.5364 0.012743C67.5967 0.0318166 69.983 2.4478 69.9957 5.52076C70.0084 8.88831 69.9915 12.258 70.0084 15.6255C70.0106 16.0812 69.8898 16.2422 69.415 16.2337C67.9697 16.2041 66.5222 16.2041 65.0769 16.2295C64.6445 16.238 64.547 16.0939 64.5492 15.6827C64.564 12.508 64.5555 9.33336 64.5534 6.16079C64.5534 5.95098 64.5534 5.74329 64.5534 5.45295H64.5555Z" fill="var(--fill-0, #B4B4B4)"/>
<path id="Vector_7" d="M64.5555 64.5175C64.5555 63.727 64.5555 63.0043 64.5555 62.2838C64.5555 59.6558 64.5661 57.0301 64.547 54.4021C64.5428 53.9338 64.6488 53.7536 65.1553 53.7642C66.6006 53.7981 68.0481 53.7875 69.4935 53.7685C69.8898 53.7642 70.0106 53.8999 70.0084 54.2898C69.9978 57.7273 70.0254 61.1669 69.9936 64.6044C69.9661 67.5608 67.5713 69.9577 64.6276 69.9831C61.1901 70.0128 57.7505 69.9831 54.313 70.0001C53.8764 70.0001 53.7747 69.8411 53.779 69.4427C53.7959 67.9974 53.8002 66.552 53.779 65.1066C53.7726 64.668 53.9061 64.5366 54.3469 64.5387C57.5386 64.5556 60.7302 64.5493 63.9219 64.5472C64.1126 64.5472 64.3012 64.5302 64.5576 64.5196L64.5555 64.5175Z" fill="var(--fill-0, #B4B4B4)"/>
<path id="Vector_8" d="M5.45518 64.5447C5.73916 64.5447 5.94685 64.5447 6.15454 64.5447C9.31016 64.5447 12.4658 64.5531 15.6235 64.5341C16.0686 64.532 16.2487 64.6252 16.2381 65.1126C16.2084 66.558 16.2148 68.0033 16.2339 69.4487C16.2402 69.862 16.1109 69.9976 15.6913 69.9976C12.2708 69.9828 8.85027 70.0061 5.42975 69.9849C2.45427 69.9658 0.0467658 67.5774 0.0192151 64.5977C-0.0146935 61.1602 0.0149765 57.7227 0.00438009 54.2852C0.00438009 53.8889 0.137895 53.766 0.525724 53.7702C1.97108 53.7893 3.41643 53.7957 4.86178 53.7723C5.31955 53.7639 5.46578 53.8931 5.46366 54.3679C5.44458 57.5235 5.45518 60.6791 5.45518 63.8347C5.45518 64.0445 5.45518 64.2543 5.45518 64.5468V64.5447Z" fill="var(--fill-0, #B4B4B4)"/>
<path id="Vector_9" d="M37.6999 43.0427H32.2915V37.7318H26.9594V32.2725C27.2137 32.2725 27.4362 32.2725 27.6609 32.2725C30.8335 32.2725 34.006 32.2746 37.1786 32.2704C37.5092 32.2704 37.7423 32.2704 37.7402 32.7261C37.7232 36.0745 37.7317 39.423 37.7296 42.7693C37.7296 42.8372 37.7148 42.9071 37.6999 43.0427Z" fill="var(--fill-0, #B4B4B4)"/>
<path id="Vector_10" d="M37.7318 21.5533C37.7318 23.1915 37.7233 24.8318 37.7381 26.47C37.7424 26.8303 37.6449 26.9659 37.2655 26.9617C35.7672 26.9426 34.2688 26.9426 32.7726 26.9532C32.4208 26.9553 32.2704 26.8684 32.2725 26.4848C32.2852 23.1893 32.2831 19.8939 32.2725 16.6005C32.2725 16.2593 32.3763 16.1364 32.7239 16.1406C34.2392 16.1554 35.7545 16.1576 37.2698 16.1406C37.6555 16.1364 37.7402 16.289 37.736 16.6408C37.7212 18.279 37.7296 19.9172 37.7296 21.5575L37.7318 21.5533Z" fill="var(--fill-0, #B4B4B4)"/>
<path id="Vector_11" d="M10.7893 34.947C10.7893 34.1883 10.7957 33.4296 10.7851 32.6709C10.7809 32.3805 10.8826 32.2661 11.1856 32.2682C12.737 32.2788 14.2904 32.264 15.8417 32.2894C15.971 32.2894 16.2062 32.5183 16.2083 32.6433C16.2338 34.2137 16.2211 35.782 16.2274 37.3524C16.2274 37.6682 16.0642 37.7296 15.7908 37.7275C14.2565 37.7211 12.7221 37.719 11.1856 37.7275C10.8847 37.7275 10.7809 37.6194 10.7851 37.327C10.7957 36.5343 10.7893 35.7396 10.7893 34.9449V34.947Z" fill="var(--fill-0, #B4B4B4)"/>
</g>
</svg>
